<?xml version="1.0" encoding="utf-8"?>
<!-- Generator: Adobe Illustrator 16.0.0, SVG Export Plug-In . SVG Version: 6.00 Build 0)  -->
<!DOCTYPE svg PUBLIC "-//W3C//DTD SVG 1.1//EN" "http://www.w3.org/Graphics/SVG/1.1/DTD/svg11.dtd">
<svg version="1.1" id="Layer_1" xmlns="http://www.w3.org/2000/svg" xmlns:xlink="http://www.w3.org/1999/xlink" x="0px" y="0px"
	 width="1735.666px" height="532.26px" viewBox="0 0 1735.666 532.26" enable-background="new 0 0 1735.666 532.26"
	 xml:space="preserve">
<path fill="#FFFFFF" d="M487.283,250.208c0,134.562-109.082,243.642-243.646,243.642C109.081,493.85,0,384.771,0,250.208
	C0,115.651,109.081,6.571,243.638,6.571C378.201,6.571,487.283,115.651,487.283,250.208z M384.842,108.786
	c-19.742,6.588-15.354,40.595-15.354,40.595v123.985h10.962v119.572h26.337V108.786H384.842z M131.616,174.935V107.49h-6.664v66.882
	h-8.891V107.49h-6.117v66.882h-8.339V107.49H95.49v66.882h-8.886V107.49H80.5v67.445c-0.325,20.135,14.441,26.658,14.441,26.658
	v190.042h24.44V201.593C132.582,194.137,131.616,174.935,131.616,174.935z M155.542,394.692h153.582V104.129H155.542V394.692z
	 M329.877,104.129h-12.453v290.563h12.453c6.876,0,12.453-5.575,12.453-12.452V116.582
	C342.333,109.705,336.757,104.129,329.877,104.129z M159.694,419.595l6.223-6.227l6.227,6.227v-20.754h-12.45V419.595
	L159.694,419.595z"/>
<g>
	<g enable-background="new    ">
		<path fill="#FFFFFF" d="M660.803,146.058h-70.536v72.28h-43.742V36.889h121.381v33.772h-77.639v41.748h70.536V146.058z"/>
		<path fill="#FFFFFF" d="M839.76,131.352c0,17.696-3.283,33.358-9.845,46.982c-6.564,13.627-15.889,24.114-27.978,31.468
			c-12.088,7.353-25.859,11.028-41.312,11.028s-29.162-3.552-41.125-10.655c-11.963-7.104-21.291-17.26-27.978-30.47
			c-6.688-13.21-10.199-28.371-10.53-45.487v-10.219c0-17.778,3.259-33.461,9.783-47.045c6.521-13.583,15.868-24.071,28.04-31.467
			c12.17-7.394,26.024-11.091,41.561-11.091c15.37,0,29.078,3.656,41.125,10.967c12.045,7.312,21.414,17.717,28.102,31.217
			c6.687,13.503,10.072,28.975,10.156,46.422V131.352z M795.27,123.75c0-18.027-3.012-31.717-9.035-41.062
			c-6.024-9.347-14.643-14.021-25.859-14.021c-21.933,0-33.523,16.45-34.77,49.351l-0.125,13.334c0,17.78,2.948,31.448,8.848,41.001
			c5.898,9.555,14.663,14.331,26.295,14.331c11.048,0,19.565-4.692,25.547-14.082c5.982-9.388,9.014-22.888,9.097-40.502V123.75z"/>
		<path fill="#FFFFFF" d="M1015.976,131.352c0,17.696-3.283,33.358-9.845,46.982c-6.564,13.627-15.89,24.114-27.979,31.468
			c-12.088,7.353-25.858,11.028-41.312,11.028s-29.162-3.552-41.125-10.655c-11.964-7.104-21.291-17.26-27.978-30.47
			c-6.689-13.21-10.2-28.371-10.531-45.487v-10.219c0-17.778,3.26-33.461,9.783-47.045c6.521-13.583,15.868-24.071,28.04-31.467
			c12.17-7.394,26.024-11.091,41.562-11.091c15.369,0,29.077,3.656,41.125,10.967c12.045,7.312,21.413,17.717,28.102,31.217
			c6.688,13.503,10.073,28.975,10.157,46.422V131.352z M971.485,123.75c0-18.027-3.012-31.717-9.035-41.062
			c-6.024-9.347-14.643-14.021-25.858-14.021c-21.934,0-33.523,16.45-34.77,49.351l-0.125,13.334c0,17.78,2.948,31.448,8.849,41.001
			c5.897,9.555,14.662,14.331,26.295,14.331c11.048,0,19.565-4.692,25.547-14.082c5.982-9.388,9.014-22.888,9.098-40.502V123.75z"/>
		<path fill="#FFFFFF" d="M1038.531,218.338V36.889h58.448c16.033,0,30.448,3.636,43.243,10.904
			c12.794,7.271,22.785,17.53,29.972,30.781c7.186,13.253,10.821,28.103,10.904,44.553v8.35c0,16.617-3.511,31.51-10.53,44.677
			c-7.021,13.169-16.907,23.472-29.66,30.906c-12.754,7.437-26.98,11.196-42.683,11.278H1038.531z M1082.273,70.661V184.69h15.204
			c12.544,0,22.183-4.466,28.912-13.397c6.729-8.93,10.095-22.202,10.095-39.816v-7.852c0-17.528-3.365-30.738-10.095-39.63
			c-6.729-8.889-16.533-13.334-29.41-13.334H1082.273z"/>
		<path fill="#FFFFFF" d="M1381.366,146.058h-70.536v72.28h-43.742V36.889h121.382v33.772h-77.64v41.748h70.536V146.058z"/>
		<path fill="#FFFFFF" d="M1560.323,131.352c0,17.696-3.283,33.358-9.845,46.982c-6.564,13.627-15.89,24.114-27.979,31.468
			c-12.088,7.353-25.858,11.028-41.312,11.028s-29.162-3.552-41.125-10.655c-11.964-7.104-21.291-17.26-27.978-30.47
			c-6.689-13.21-10.2-28.371-10.531-45.487v-10.219c0-17.778,3.26-33.461,9.783-47.045c6.521-13.583,15.868-24.071,28.04-31.467
			c12.17-7.394,26.024-11.091,41.562-11.091c15.369,0,29.077,3.656,41.125,10.967c12.045,7.312,21.413,17.717,28.102,31.217
			c6.688,13.503,10.073,28.975,10.157,46.422V131.352z M1515.833,123.75c0-18.027-3.012-31.717-9.035-41.062
			c-6.024-9.347-14.643-14.021-25.858-14.021c-21.934,0-33.523,16.45-34.77,49.351l-0.125,13.334c0,17.78,2.948,31.448,8.849,41.001
			c5.897,9.555,14.662,14.331,26.295,14.331c11.048,0,19.565-4.692,25.547-14.082c5.982-9.388,9.014-22.888,9.098-40.502V123.75z"/>
		<path fill="#FFFFFF" d="M1650.301,154.157h-23.679v64.181h-43.742V36.889h71.409c21.517,0,38.34,4.772,50.472,14.315
			c12.129,9.546,18.194,23.032,18.194,40.46c0,12.615-2.555,23.072-7.664,31.371s-13.106,15.022-23.99,20.167l37.886,73.265v1.871
			h-46.858L1650.301,154.157z M1626.622,120.51h27.667c8.307,0,14.559-2.185,18.755-6.559c4.194-4.373,6.294-10.474,6.294-18.304
			c0-7.827-2.119-13.971-6.356-18.426c-4.236-4.456-10.468-6.686-18.692-6.686h-27.667V120.51z"/>
	</g>
	<g enable-background="new    ">
		<path fill="#FFFFFF" d="M694.968,315.419h-54.46v147.677h-43.742V315.419h-53.463v-33.772h151.665V315.419z"/>
		<path fill="#FFFFFF" d="M865.076,463.096h-43.493v-75.771h-64.43v75.771h-43.742V281.646h43.742v72.031h64.43v-72.031h43.493
			V463.096z"/>
		<path fill="#FFFFFF" d="M1046.401,376.109c0,17.696-3.283,33.358-9.845,46.982c-6.564,13.627-15.89,24.114-27.979,31.468
			c-12.088,7.353-25.858,11.028-41.312,11.028s-29.162-3.552-41.125-10.655c-11.964-7.104-21.291-17.26-27.978-30.47
			c-6.689-13.21-10.2-28.371-10.531-45.487v-10.219c0-17.778,3.26-33.461,9.783-47.045c6.521-13.583,15.868-24.071,28.04-31.467
			c12.17-7.394,26.024-11.091,41.562-11.091c15.369,0,29.077,3.656,41.125,10.967c12.045,7.312,21.413,17.717,28.102,31.217
			c6.688,13.503,10.073,28.975,10.157,46.422V376.109z M1001.911,368.508c0-18.027-3.012-31.717-9.035-41.062
			c-6.024-9.347-14.643-14.021-25.858-14.021c-21.934,0-33.523,16.45-34.77,49.351l-0.125,13.334c0,17.78,2.948,31.448,8.849,41.001
			c5.897,9.555,14.662,14.331,26.295,14.331c11.048,0,19.565-4.692,25.547-14.082c5.982-9.388,9.014-22.888,9.098-40.502V368.508z"
			/>
		<path fill="#FFFFFF" d="M1211.275,281.646v118.765c0,13.459-2.866,25.111-8.599,34.956c-5.732,9.846-13.958,17.344-24.675,22.494
			c-10.718,5.152-23.389,7.727-38.01,7.727c-22.102,0-39.506-5.732-52.217-17.197c-12.712-11.466-19.191-27.168-19.441-47.107
			V281.646h43.992v120.509c0.498,19.858,9.72,29.785,27.666,29.785c9.055,0,15.908-2.492,20.562-7.478
			c4.651-4.984,6.979-13.085,6.979-24.301V281.646H1211.275z"/>
		<path fill="#FFFFFF" d="M1387.117,440.664c-6.729,7.477-16.575,13.502-29.535,18.07c-12.961,4.567-27.168,6.854-42.621,6.854
			c-23.762,0-42.745-7.269-56.952-21.809c-14.207-14.538-21.809-34.77-22.806-60.69l-0.125-15.703
			c0-17.861,3.156-33.461,9.472-46.795c6.312-13.335,15.348-23.595,27.105-30.782c11.755-7.185,25.36-10.779,40.813-10.779
			c22.598,0,40.147,5.172,52.652,15.516c12.503,10.344,19.794,25.777,21.871,46.297h-42.122
			c-1.495-10.136-4.735-17.363-9.721-21.685c-4.984-4.318-12.047-6.48-21.186-6.48c-10.967,0-19.44,4.654-25.423,13.958
			c-5.981,9.306-9.016,22.6-9.098,39.879v10.967c0,18.113,3.095,31.716,9.285,40.813c6.188,9.098,15.93,13.646,29.224,13.646
			c11.381,0,19.855-2.533,25.423-7.603v-28.164h-30.408V366.14h74.15V440.664z"/>
		<path fill="#FFFFFF" d="M1564.205,463.096h-43.493v-75.771h-64.43v75.771h-43.742V281.646h43.742v72.031h64.43v-72.031h43.493
			V463.096z"/>
		<path fill="#FFFFFF" d="M1730.7,315.419h-54.46v147.677h-43.742V315.419h-53.463v-33.772H1730.7V315.419z"/>
	</g>
</g>
</svg>
