<?xml version="1.0" encoding="utf-8"?>
<!-- Generator: Adobe Illustrator 16.0.0, SVG Export Plug-In . SVG Version: 6.00 Build 0)  -->
<!DOCTYPE svg PUBLIC "-//W3C//DTD SVG 1.1//EN" "http://www.w3.org/Graphics/SVG/1.1/DTD/svg11.dtd">
<svg version="1.1" id="Layer_1" xmlns="http://www.w3.org/2000/svg" xmlns:xlink="http://www.w3.org/1999/xlink" x="0px" y="0px"
	 width="2060px" height="560px" viewBox="0 0 2060 560" enable-background="new 0 0 2060 560" xml:space="preserve">
<g>
	<g id="label">
		<path id="color_2_" fill="#E84855" d="M526.467,279.998c0,134.562-109.082,243.642-243.646,243.642
			c-134.557,0-243.638-109.079-243.638-243.642c0-134.557,109.081-243.638,243.638-243.638
			C417.385,36.36,526.467,145.441,526.467,279.998z"/>
	</g>
	<g id="icon">
		<g>
			<g>
				<g>
					<path fill="#FFFFFF" d="M445.971,138.575v284.151h-26.337V303.154h-10.962V179.17c0,0-4.388-34.007,15.354-40.595H445.971z"/>
				</g>
			</g>
			<g>
				<g>
					<path fill="#FFFFFF" d="M158.566,231.382v190.042h-24.44V231.382c0,0-14.767-6.523-14.441-26.658v-67.445h6.104v66.882h8.886
						v-66.882h6.115v66.882h8.339v-66.882h6.117v66.882h8.891v-66.882h6.664v67.445C170.8,204.725,171.766,223.927,158.566,231.382z
						"/>
				</g>
			</g>
		</g>
	</g>
	<rect x="194.726" y="133.918" fill="#FFFFFF" width="153.582" height="290.563"/>
	<path fill="#FFFFFF" d="M369.061,133.918h-12.452v290.563h12.452c6.877,0,12.453-5.575,12.453-12.452V146.371
		C381.517,139.494,375.94,133.918,369.061,133.918z"/>
	<polygon fill="#FFFFFF" points="198.878,449.385 205.101,443.158 211.328,449.385 211.328,428.631 198.878,428.631 	"/>
</g>
<g>
	<g enable-background="new    ">
		<path fill="#E84855" d="M699.987,175.847h-70.536v72.28h-43.742V66.678H707.09v33.772h-77.639v41.748h70.536V175.847z"/>
		<path fill="#E84855" d="M878.943,161.141c0,17.696-3.283,33.358-9.845,46.982c-6.564,13.627-15.889,24.114-27.978,31.468
			c-12.088,7.353-25.859,11.028-41.312,11.028s-29.162-3.552-41.125-10.655c-11.963-7.104-21.291-17.26-27.978-30.47
			c-6.688-13.21-10.199-28.371-10.53-45.487v-10.219c0-17.778,3.259-33.461,9.783-47.045c6.521-13.583,15.868-24.071,28.04-31.467
			c12.17-7.394,26.024-11.091,41.561-11.091c15.37,0,29.078,3.656,41.125,10.967c12.045,7.312,21.414,17.717,28.102,31.217
			c6.687,13.503,10.072,28.975,10.156,46.422V161.141z M834.454,153.539c0-18.027-3.012-31.717-9.035-41.062
			c-6.024-9.347-14.643-14.021-25.859-14.021c-21.933,0-33.523,16.45-34.77,49.351l-0.125,13.334c0,17.78,2.948,31.448,8.848,41.001
			c5.898,9.555,14.663,14.331,26.295,14.331c11.048,0,19.565-4.692,25.547-14.082c5.982-9.388,9.014-22.888,9.097-40.502V153.539z"
			/>
		<path fill="#E84855" d="M1055.159,161.141c0,17.696-3.283,33.358-9.845,46.982c-6.564,13.627-15.89,24.114-27.979,31.468
			c-12.088,7.353-25.858,11.028-41.312,11.028s-29.162-3.552-41.125-10.655c-11.964-7.104-21.291-17.26-27.978-30.47
			c-6.689-13.21-10.2-28.371-10.531-45.487v-10.219c0-17.778,3.26-33.461,9.783-47.045c6.521-13.583,15.868-24.071,28.04-31.467
			c12.17-7.394,26.024-11.091,41.562-11.091c15.369,0,29.077,3.656,41.125,10.967c12.045,7.312,21.413,17.717,28.102,31.217
			c6.688,13.503,10.073,28.975,10.157,46.422V161.141z M1010.669,153.539c0-18.027-3.012-31.717-9.035-41.062
			c-6.024-9.347-14.643-14.021-25.858-14.021c-21.934,0-33.523,16.45-34.77,49.351l-0.125,13.334c0,17.78,2.948,31.448,8.849,41.001
			c5.897,9.555,14.662,14.331,26.295,14.331c11.048,0,19.565-4.692,25.547-14.082c5.982-9.388,9.014-22.888,9.098-40.502V153.539z"
			/>
		<path fill="#E84855" d="M1077.715,248.127V66.678h58.448c16.033,0,30.448,3.636,43.243,10.904
			c12.794,7.271,22.785,17.53,29.972,30.781c7.186,13.253,10.821,28.103,10.904,44.553v8.35c0,16.617-3.511,31.51-10.53,44.677
			c-7.021,13.169-16.907,23.472-29.66,30.906c-12.754,7.437-26.98,11.196-42.683,11.278H1077.715z M1121.457,100.45v114.029h15.204
			c12.544,0,22.183-4.466,28.912-13.397c6.729-8.93,10.095-22.202,10.095-39.816v-7.852c0-17.528-3.365-30.738-10.095-39.63
			c-6.729-8.889-16.533-13.334-29.41-13.334H1121.457z"/>
		<path fill="#E84855" d="M1420.55,175.847h-70.536v72.28h-43.742V66.678h121.382v33.772h-77.64v41.748h70.536V175.847z"/>
		<path fill="#E84855" d="M1599.507,161.141c0,17.696-3.283,33.358-9.845,46.982c-6.564,13.627-15.89,24.114-27.979,31.468
			c-12.088,7.353-25.858,11.028-41.312,11.028s-29.162-3.552-41.125-10.655c-11.964-7.104-21.291-17.26-27.978-30.47
			c-6.689-13.21-10.2-28.371-10.531-45.487v-10.219c0-17.778,3.26-33.461,9.783-47.045c6.521-13.583,15.868-24.071,28.04-31.467
			c12.17-7.394,26.024-11.091,41.562-11.091c15.369,0,29.077,3.656,41.125,10.967c12.045,7.312,21.413,17.717,28.102,31.217
			c6.688,13.503,10.073,28.975,10.157,46.422V161.141z M1555.017,153.539c0-18.027-3.012-31.717-9.035-41.062
			c-6.024-9.347-14.643-14.021-25.858-14.021c-21.934,0-33.523,16.45-34.77,49.351l-0.125,13.334c0,17.78,2.948,31.448,8.849,41.001
			c5.897,9.555,14.662,14.331,26.295,14.331c11.048,0,19.565-4.692,25.547-14.082c5.982-9.388,9.014-22.888,9.098-40.502V153.539z"
			/>
		<path fill="#E84855" d="M1689.484,183.946h-23.679v64.181h-43.742V66.678h71.409c21.517,0,38.34,4.772,50.472,14.315
			c12.129,9.546,18.194,23.032,18.194,40.46c0,12.615-2.555,23.072-7.664,31.371s-13.106,15.022-23.99,20.167l37.886,73.265v1.871
			h-46.858L1689.484,183.946z M1665.806,150.299h27.667c8.307,0,14.559-2.185,18.755-6.559c4.194-4.373,6.294-10.474,6.294-18.304
			c0-7.827-2.119-13.971-6.356-18.426c-4.236-4.456-10.468-6.686-18.692-6.686h-27.667V150.299z"/>
	</g>
	<g enable-background="new    ">
		<path fill="#E84855" d="M734.151,345.208h-54.46v147.677h-43.742V345.208h-53.463v-33.772h151.665V345.208z"/>
		<path fill="#E84855" d="M904.26,492.885h-43.493v-75.771h-64.43v75.771h-43.742V311.436h43.742v72.031h64.43v-72.031h43.493
			V492.885z"/>
		<path fill="#E84855" d="M1085.585,405.898c0,17.696-3.283,33.358-9.845,46.982c-6.564,13.627-15.89,24.114-27.979,31.468
			c-12.088,7.353-25.858,11.028-41.312,11.028s-29.162-3.552-41.125-10.655c-11.964-7.104-21.291-17.26-27.978-30.47
			c-6.689-13.21-10.2-28.371-10.531-45.487v-10.219c0-17.778,3.26-33.461,9.783-47.045c6.521-13.583,15.868-24.071,28.04-31.467
			c12.17-7.394,26.024-11.091,41.562-11.091c15.369,0,29.077,3.656,41.125,10.967c12.045,7.312,21.413,17.717,28.102,31.217
			c6.688,13.503,10.073,28.975,10.157,46.422V405.898z M1041.095,398.297c0-18.027-3.012-31.717-9.035-41.062
			c-6.024-9.347-14.643-14.021-25.858-14.021c-21.934,0-33.523,16.45-34.77,49.351l-0.125,13.334c0,17.78,2.948,31.448,8.849,41.001
			c5.897,9.555,14.662,14.331,26.295,14.331c11.048,0,19.565-4.692,25.547-14.082c5.982-9.388,9.014-22.888,9.098-40.502V398.297z"
			/>
		<path fill="#E84855" d="M1250.459,311.436V430.2c0,13.459-2.866,25.111-8.599,34.956c-5.732,9.846-13.958,17.344-24.675,22.494
			c-10.718,5.152-23.389,7.727-38.01,7.727c-22.102,0-39.506-5.732-52.217-17.197c-12.712-11.466-19.191-27.168-19.441-47.107
			V311.436h43.992v120.509c0.498,19.858,9.72,29.785,27.666,29.785c9.055,0,15.908-2.492,20.562-7.478
			c4.651-4.984,6.979-13.085,6.979-24.301V311.436H1250.459z"/>
		<path fill="#E84855" d="M1426.301,470.453c-6.729,7.477-16.575,13.502-29.535,18.07c-12.961,4.567-27.168,6.854-42.621,6.854
			c-23.762,0-42.745-7.269-56.952-21.809c-14.207-14.538-21.809-34.77-22.806-60.69l-0.125-15.703
			c0-17.861,3.156-33.461,9.472-46.795c6.312-13.335,15.348-23.595,27.105-30.782c11.755-7.185,25.36-10.779,40.813-10.779
			c22.598,0,40.147,5.172,52.652,15.516c12.503,10.344,19.794,25.777,21.871,46.297h-42.122
			c-1.495-10.136-4.735-17.363-9.721-21.685c-4.984-4.318-12.047-6.48-21.186-6.48c-10.967,0-19.44,4.654-25.423,13.958
			c-5.981,9.306-9.016,22.6-9.098,39.879v10.967c0,18.113,3.095,31.716,9.285,40.813c6.188,9.098,15.93,13.646,29.224,13.646
			c11.381,0,19.855-2.533,25.423-7.603v-28.164h-30.408v-30.034h74.15V470.453z"/>
		<path fill="#E84855" d="M1603.389,492.885h-43.493v-75.771h-64.43v75.771h-43.742V311.436h43.742v72.031h64.43v-72.031h43.493
			V492.885z"/>
		<path fill="#E84855" d="M1769.884,345.208h-54.46v147.677h-43.742V345.208h-53.463v-33.772h151.665V345.208z"/>
	</g>
</g>
</svg>
