<?xml version="1.0" encoding="utf-8"?>
<!-- Generator: Adobe Illustrator 16.0.0, SVG Export Plug-In . SVG Version: 6.00 Build 0)  -->
<!DOCTYPE svg PUBLIC "-//W3C//DTD SVG 1.1//EN" "http://www.w3.org/Graphics/SVG/1.1/DTD/svg11.dtd">
<svg version="1.1" id="Layer_1" xmlns="http://www.w3.org/2000/svg" xmlns:xlink="http://www.w3.org/1999/xlink" x="0px" y="0px"
	 width="1735.666px" height="532.26px" viewBox="0 0 1735.666 532.26" enable-background="new 0 0 1735.666 532.26"
	 xml:space="preserve">
<path fill="#FFFFFF" d="M487.283,250.208c0,134.562-109.082,243.642-243.646,243.642C109.081,493.85,0,384.771,0,250.208
	C0,115.651,109.081,6.571,243.638,6.571C378.201,6.571,487.283,115.651,487.283,250.208z M384.842,108.786
	c-19.742,6.588-15.354,40.595-15.354,40.595v123.985h10.962v119.572h26.337V108.786H384.842z M131.616,174.935V107.49h-6.664v66.882
	h-8.891V107.49h-6.117v66.882h-8.339V107.49h-6.115v66.882h-8.886V107.49h-6.104v67.445c-0.325,20.135,14.441,26.658,14.441,26.658
	v190.042h24.44V201.593C132.582,194.137,131.616,174.935,131.616,174.935z M155.542,394.692h153.582V104.129H155.542V394.692z
	 M329.877,104.129h-12.453v290.563h12.453c6.876,0,12.453-5.575,12.453-12.452V116.582
	C342.333,109.705,336.757,104.129,329.877,104.129z M159.694,419.595l6.223-6.227l6.227,6.227v-20.754h-12.45V419.595z"/>
<g>
	<g>
		<text transform="matrix(1 0 0 1 532.8164 218.3374)" fill="#FFFFFF" font-family="'Roboto-Black'" font-size="255.2255">FOOD FOR</text>
	</g>
	<text transform="matrix(1 0 0 1 538.8164 463.0952)" fill="#FFFFFF" font-family="'Roboto-Black'" font-size="255.2255">THOUGHT</text>
</g>
</svg>
